{
    "asset" : {
        "generator" : "Khronos glTF Blender I/O v1.8.19",
        "version" : "2.0"
    },
    "scene" : 0,
    "scenes" : [
        {
            "name" : "Scene",
            "nodes" : [
                0
            ]
        }
    ],
    "nodes" : [
        {
            "mesh" : 0,
            "name" : "BirchTree_4"
        }
    ],
    "materials" : [
        {
            "doubleSided" : true,
            "name" : "White",
            "pbrMetallicRoughness" : {
                "baseColorFactor" : [
                    0.6554416418075562,
                    0.685953676700592,
                    0.6257363557815552,
                    1
                ],
                "metallicFactor" : 0,
                "roughnessFactor" : 0.5
            }
        },
        {
            "doubleSided" : true,
            "name" : "Black",
            "pbrMetallicRoughness" : {
                "baseColorFactor" : [
                    0.05496654286980629,
                    0.05496654286980629,
                    0.05496654286980629,
                    1
                ],
                "metallicFactor" : 0,
                "roughnessFactor" : 0.5
            }
        },
        {
            "doubleSided" : true,
            "name" : "Green",
            "pbrMetallicRoughness" : {
                "baseColorFactor" : [
                    0.08744194358587265,
                    0.15232062339782715,
                    0.05986013635993004,
                    1
                ],
                "metallicFactor" : 0,
                "roughnessFactor" : 0.5
            }
        },
        {
            "doubleSided" : true,
            "name" : "DarkGreen",
            "pbrMetallicRoughness" : {
                "baseColorFactor" : [
                    0.05316007137298584,
                    0.09083576500415802,
                    0.03697298839688301,
                    1
                ],
                "metallicFactor" : 0,
                "roughnessFactor" : 0.5
            }
        }
    ],
    "meshes" : [
        {
            "name" : "Cube.070",
            "primitives" : [
                {
                    "attributes" : {
                        "POSITION" : 0,
                        "NORMAL" : 1
                    },
                    "indices" : 2,
                    "material" : 0
                },
                {
                    "attributes" : {
                        "POSITION" : 3,
                        "NORMAL" : 4
                    },
                    "indices" : 5,
                    "material" : 1
                },
                {
                    "attributes" : {
                        "POSITION" : 6,
                        "NORMAL" : 7
                    },
                    "indices" : 8,
                    "material" : 2
                },
                {
                    "attributes" : {
                        "POSITION" : 9,
                        "NORMAL" : 10
                    },
                    "indices" : 11,
                    "material" : 3
                }
            ]
        }
    ],
    "accessors" : [
        {
            "bufferView" : 0,
            "componentType" : 5126,
            "count" : 2982,
            "max" : [
                0.17044104635715485,
                2.6863443851470947,
                0.9407399296760559
            ],
            "min" : [
                -0.32879436016082764,
                -0.006081199739128351,
                -1.6560509204864502
            ],
            "type" : "VEC3"
        },
        {
            "bufferView" : 1,
            "componentType" : 5126,
            "count" : 2982,
            "type" : "VEC3"
        },
        {
            "bufferView" : 2,
            "componentType" : 5123,
            "count" : 4512,
            "type" : "SCALAR"
        },
        {
            "bufferView" : 3,
            "componentType" : 5126,
            "count" : 198,
            "max" : [
                0.17044104635715485,
                2.0041983127593994,
                0.858783483505249
            ],
            "min" : [
                -0.3121642768383026,
                0.16162320971488953,
                -1.515711784362793
            ],
            "type" : "VEC3"
        },
        {
            "bufferView" : 4,
            "componentType" : 5126,
            "count" : 198,
            "type" : "VEC3"
        },
        {
            "bufferView" : 5,
            "componentType" : 5123,
            "count" : 198,
            "type" : "SCALAR"
        },
        {
            "bufferView" : 6,
            "componentType" : 5126,
            "count" : 768,
            "max" : [
                0.34691566228866577,
                3.5524203777313232,
                0.554090678691864
            ],
            "min" : [
                -0.806090772151947,
                1.0804132223129272,
                -1.9693970680236816
            ],
            "type" : "VEC3"
        },
        {
            "bufferView" : 7,
            "componentType" : 5126,
            "count" : 768,
            "type" : "VEC3"
        },
        {
            "bufferView" : 8,
            "componentType" : 5123,
            "count" : 1152,
            "type" : "SCALAR"
        },
        {
            "bufferView" : 9,
            "componentType" : 5126,
            "count" : 768,
            "max" : [
                0.32024359703063965,
                3.0918352603912354,
                1.3178585767745972
            ],
            "min" : [
                -0.6877059936523438,
                1.2403115034103394,
                -1.568747639656067
            ],
            "type" : "VEC3"
        },
        {
            "bufferView" : 10,
            "componentType" : 5126,
            "count" : 768,
            "type" : "VEC3"
        },
        {
            "bufferView" : 11,
            "componentType" : 5123,
            "count" : 1152,
            "type" : "SCALAR"
        }
    ],
    "bufferViews" : [
        {
            "buffer" : 0,
            "byteLength" : 35784,
            "byteOffset" : 0
        },
        {
            "buffer" : 0,
            "byteLength" : 35784,
            "byteOffset" : 35784
        },
        {
            "buffer" : 0,
            "byteLength" : 9024,
            "byteOffset" : 71568
        },
        {
            "buffer" : 0,
            "byteLength" : 2376,
            "byteOffset" : 80592
        },
        {
            "buffer" : 0,
            "byteLength" : 2376,
            "byteOffset" : 82968
        },
        {
            "buffer" : 0,
            "byteLength" : 396,
            "byteOffset" : 85344
        },
        {
            "buffer" : 0,
            "byteLength" : 9216,
            "byteOffset" : 85740
        },
        {
            "buffer" : 0,
            "byteLength" : 9216,
            "byteOffset" : 94956
        },
        {
            "buffer" : 0,
            "byteLength" : 2304,
            "byteOffset" : 104172
        },
        {
            "buffer" : 0,
            "byteLength" : 9216,
            "byteOffset" : 106476
        },
        {
            "buffer" : 0,
            "byteLength" : 9216,
            "byteOffset" : 115692
        },
        {
            "buffer" : 0,
            "byteLength" : 2304,
            "byteOffset" : 124908
        }
    ],
    "buffers" : [
        {
            "byteLength" : 127212,
            "uri" : "data:application/octet-stream;base64,"
        }
    ]
}
