{
    "asset" : {
        "generator" : "Khronos glTF Blender I/O v1.8.19",
        "version" : "2.0"
    },
    "scene" : 0,
    "scenes" : [
        {
            "name" : "Scene",
            "nodes" : [
                0
            ]
        }
    ],
    "nodes" : [
        {
            "mesh" : 0,
            "name" : "BirchTree_1"
        }
    ],
    "materials" : [
        {
            "doubleSided" : true,
            "name" : "White",
            "pbrMetallicRoughness" : {
                "baseColorFactor" : [
                    0.6554416418075562,
                    0.685953676700592,
                    0.6257363557815552,
                    1
                ],
                "metallicFactor" : 0,
                "roughnessFactor" : 0.5
            }
        },
        {
            "doubleSided" : true,
            "name" : "Black",
            "pbrMetallicRoughness" : {
                "baseColorFactor" : [
                    0.05496654286980629,
                    0.05496654286980629,
                    0.05496654286980629,
                    1
                ],
                "metallicFactor" : 0,
                "roughnessFactor" : 0.5
            }
        },
        {
            "doubleSided" : true,
            "name" : "Green",
            "pbrMetallicRoughness" : {
                "baseColorFactor" : [
                    0.08744194358587265,
                    0.15232062339782715,
                    0.05986013635993004,
                    1
                ],
                "metallicFactor" : 0,
                "roughnessFactor" : 0.5
            }
        },
        {
            "doubleSided" : true,
            "name" : "DarkGreen",
            "pbrMetallicRoughness" : {
                "baseColorFactor" : [
                    0.05316007137298584,
                    0.09083576500415802,
                    0.03697298839688301,
                    1
                ],
                "metallicFactor" : 0,
                "roughnessFactor" : 0.5
            }
        }
    ],
    "meshes" : [
        {
            "name" : "Cube",
            "primitives" : [
                {
                    "attributes" : {
                        "POSITION" : 0,
                        "NORMAL" : 1
                    },
                    "indices" : 2,
                    "material" : 0
                },
                {
                    "attributes" : {
                        "POSITION" : 3,
                        "NORMAL" : 4
                    },
                    "indices" : 5,
                    "material" : 1
                },
                {
                    "attributes" : {
                        "POSITION" : 6,
                        "NORMAL" : 7
                    },
                    "indices" : 8,
                    "material" : 2
                },
                {
                    "attributes" : {
                        "POSITION" : 9,
                        "NORMAL" : 10
                    },
                    "indices" : 11,
                    "material" : 3
                }
            ]
        }
    ],
    "accessors" : [
        {
            "bufferView" : 0,
            "componentType" : 5126,
            "count" : 2144,
            "max" : [
                0.280149906873703,
                2.686344623565674,
                0.15886908769607544
            ],
            "min" : [
                -0.21908558905124664,
                -0.006081616505980492,
                -1.6560511589050293
            ],
            "type" : "VEC3"
        },
        {
            "bufferView" : 1,
            "componentType" : 5126,
            "count" : 2144,
            "type" : "VEC3"
        },
        {
            "bufferView" : 2,
            "componentType" : 5123,
            "count" : 3216,
            "type" : "SCALAR"
        },
        {
            "bufferView" : 3,
            "componentType" : 5126,
            "count" : 168,
            "max" : [
                0.280149906873703,
                2.0041983127593994,
                0.1535726934671402
            ],
            "min" : [
                -0.20245550572872162,
                0.161623015999794,
                -1.5157122611999512
            ],
            "type" : "VEC3"
        },
        {
            "bufferView" : 4,
            "componentType" : 5126,
            "count" : 168,
            "type" : "VEC3"
        },
        {
            "bufferView" : 5,
            "componentType" : 5123,
            "count" : 168,
            "type" : "SCALAR"
        },
        {
            "bufferView" : 6,
            "componentType" : 5126,
            "count" : 992,
            "max" : [
                0.8790640234947205,
                3.567718267440796,
                0.569269061088562
            ],
            "min" : [
                -0.8227963447570801,
                1.1012389659881592,
                -1.9104607105255127
            ],
            "type" : "VEC3"
        },
        {
            "bufferView" : 7,
            "componentType" : 5126,
            "count" : 992,
            "type" : "VEC3"
        },
        {
            "bufferView" : 8,
            "componentType" : 5123,
            "count" : 1488,
            "type" : "SCALAR"
        },
        {
            "bufferView" : 9,
            "componentType" : 5126,
            "count" : 160,
            "max" : [
                0.3609596788883209,
                1.5151512622833252,
                -0.7045071721076965
            ],
            "min" : [
                -0.2677575647830963,
                0.8774142861366272,
                -1.301464557647705
            ],
            "type" : "VEC3"
        },
        {
            "bufferView" : 10,
            "componentType" : 5126,
            "count" : 160,
            "type" : "VEC3"
        },
        {
            "bufferView" : 11,
            "componentType" : 5123,
            "count" : 240,
            "type" : "SCALAR"
        }
    ],
    "bufferViews" : [
        {
            "buffer" : 0,
            "byteLength" : 25728,
            "byteOffset" : 0
        },
        {
            "buffer" : 0,
            "byteLength" : 25728,
            "byteOffset" : 25728
        },
        {
            "buffer" : 0,
            "byteLength" : 6432,
            "byteOffset" : 51456
        },
        {
            "buffer" : 0,
            "byteLength" : 2016,
            "byteOffset" : 57888
        },
        {
            "buffer" : 0,
            "byteLength" : 2016,
            "byteOffset" : 59904
        },
        {
            "buffer" : 0,
            "byteLength" : 336,
            "byteOffset" : 61920
        },
        {
            "buffer" : 0,
            "byteLength" : 11904,
            "byteOffset" : 62256
        },
        {
            "buffer" : 0,
            "byteLength" : 11904,
            "byteOffset" : 74160
        },
        {
            "buffer" : 0,
            "byteLength" : 2976,
            "byteOffset" : 86064
        },
        {
            "buffer" : 0,
            "byteLength" : 1920,
            "byteOffset" : 89040
        },
        {
            "buffer" : 0,
            "byteLength" : 1920,
            "byteOffset" : 90960
        },
        {
            "buffer" : 0,
            "byteLength" : 480,
            "byteOffset" : 92880
        }
    ],
    "buffers" : [
        {
            "byteLength" : 93360,
            "uri" : "data:application/octet-stream;base64,"
        }
    ]
}
