{
    "asset" : {
        "generator" : "Khronos glTF Blender I/O v1.8.19",
        "version" : "2.0"
    },
    "scene" : 0,
    "scenes" : [
        {
            "name" : "Scene",
            "nodes" : [
                0
            ]
        }
    ],
    "nodes" : [
        {
            "mesh" : 0,
            "name" : "BirchTree_2"
        }
    ],
    "materials" : [
        {
            "doubleSided" : true,
            "name" : "White.001",
            "pbrMetallicRoughness" : {
                "baseColorFactor" : [
                    0.6554416418075562,
                    0.685953676700592,
                    0.6257363557815552,
                    1
                ],
                "metallicFactor" : 0,
                "roughnessFactor" : 0.5
            }
        },
        {
            "doubleSided" : true,
            "name" : "Black.001",
            "pbrMetallicRoughness" : {
                "baseColorFactor" : [
                    0.05496654286980629,
                    0.05496654286980629,
                    0.05496654286980629,
                    1
                ],
                "metallicFactor" : 0,
                "roughnessFactor" : 0.5
            }
        },
        {
            "doubleSided" : true,
            "name" : "Green.001",
            "pbrMetallicRoughness" : {
                "baseColorFactor" : [
                    0.08744194358587265,
                    0.15232062339782715,
                    0.05986013635993004,
                    1
                ],
                "metallicFactor" : 0,
                "roughnessFactor" : 0.5
            }
        },
        {
            "doubleSided" : true,
            "name" : "DarkGreen.001",
            "pbrMetallicRoughness" : {
                "baseColorFactor" : [
                    0.05316007137298584,
                    0.09083576500415802,
                    0.03697298839688301,
                    1
                ],
                "metallicFactor" : 0,
                "roughnessFactor" : 0.5
            }
        }
    ],
    "meshes" : [
        {
            "name" : "Cube.064",
            "primitives" : [
                {
                    "attributes" : {
                        "POSITION" : 0,
                        "NORMAL" : 1
                    },
                    "indices" : 2,
                    "material" : 0
                },
                {
                    "attributes" : {
                        "POSITION" : 3,
                        "NORMAL" : 4
                    },
                    "indices" : 5,
                    "material" : 1
                },
                {
                    "attributes" : {
                        "POSITION" : 6,
                        "NORMAL" : 7
                    },
                    "indices" : 8,
                    "material" : 2
                },
                {
                    "attributes" : {
                        "POSITION" : 9,
                        "NORMAL" : 10
                    },
                    "indices" : 11,
                    "material" : 3
                }
            ]
        }
    ],
    "accessors" : [
        {
            "bufferView" : 0,
            "componentType" : 5126,
            "count" : 2544,
            "max" : [
                0.3039851486682892,
                2.5908420085906982,
                0.7694703340530396
            ],
            "min" : [
                -0.38454580307006836,
                -0.04246043041348457,
                -0.11159828305244446
            ],
            "type" : "VEC3"
        },
        {
            "bufferView" : 1,
            "componentType" : 5126,
            "count" : 2544,
            "type" : "VEC3"
        },
        {
            "bufferView" : 2,
            "componentType" : 5123,
            "count" : 3816,
            "type" : "SCALAR"
        },
        {
            "bufferView" : 3,
            "componentType" : 5126,
            "count" : 116,
            "max" : [
                0.23677510023117065,
                1.9180327653884888,
                0.6961138248443604
            ],
            "min" : [
                -0.32356685400009155,
                0.07649492472410202,
                -0.07393623888492584
            ],
            "type" : "VEC3"
        },
        {
            "bufferView" : 4,
            "componentType" : 5126,
            "count" : 116,
            "type" : "VEC3"
        },
        {
            "bufferView" : 5,
            "componentType" : 5123,
            "count" : 120,
            "type" : "SCALAR"
        },
        {
            "bufferView" : 6,
            "componentType" : 5126,
            "count" : 256,
            "max" : [
                0.7376178503036499,
                3.988313674926758,
                1.0936298370361328
            ],
            "min" : [
                -0.7313240766525269,
                1.710138201713562,
                -0.4577917158603668
            ],
            "type" : "VEC3"
        },
        {
            "bufferView" : 7,
            "componentType" : 5126,
            "count" : 256,
            "type" : "VEC3"
        },
        {
            "bufferView" : 8,
            "componentType" : 5123,
            "count" : 384,
            "type" : "SCALAR"
        },
        {
            "bufferView" : 9,
            "componentType" : 5126,
            "count" : 256,
            "max" : [
                0.6187698841094971,
                3.0860958099365234,
                1.2349350452423096
            ],
            "min" : [
                -0.43206119537353516,
                1.3079710006713867,
                0.21632690727710724
            ],
            "type" : "VEC3"
        },
        {
            "bufferView" : 10,
            "componentType" : 5126,
            "count" : 256,
            "type" : "VEC3"
        },
        {
            "bufferView" : 11,
            "componentType" : 5123,
            "count" : 384,
            "type" : "SCALAR"
        }
    ],
    "bufferViews" : [
        {
            "buffer" : 0,
            "byteLength" : 30528,
            "byteOffset" : 0
        },
        {
            "buffer" : 0,
            "byteLength" : 30528,
            "byteOffset" : 30528
        },
        {
            "buffer" : 0,
            "byteLength" : 7632,
            "byteOffset" : 61056
        },
        {
            "buffer" : 0,
            "byteLength" : 1392,
            "byteOffset" : 68688
        },
        {
            "buffer" : 0,
            "byteLength" : 1392,
            "byteOffset" : 70080
        },
        {
            "buffer" : 0,
            "byteLength" : 240,
            "byteOffset" : 71472
        },
        {
            "buffer" : 0,
            "byteLength" : 3072,
            "byteOffset" : 71712
        },
        {
            "buffer" : 0,
            "byteLength" : 3072,
            "byteOffset" : 74784
        },
        {
            "buffer" : 0,
            "byteLength" : 768,
            "byteOffset" : 77856
        },
        {
            "buffer" : 0,
            "byteLength" : 3072,
            "byteOffset" : 78624
        },
        {
            "buffer" : 0,
            "byteLength" : 3072,
            "byteOffset" : 81696
        },
        {
            "buffer" : 0,
            "byteLength" : 768,
            "byteOffset" : 84768
        }
    ],
    "buffers" : [
        {
            "byteLength" : 85536,
            "uri" : "data:application/octet-stream;base64,"
        }
    ]
}
