{
    "asset" : {
        "generator" : "Khronos glTF Blender I/O v1.8.19",
        "version" : "2.0"
    },
    "scene" : 0,
    "scenes" : [
        {
            "name" : "Scene",
            "nodes" : [
                0
            ]
        }
    ],
    "nodes" : [
        {
            "mesh" : 0,
            "name" : "CommonTree_1"
        }
    ],
    "materials" : [
        {
            "doubleSided" : true,
            "name" : "Wood",
            "pbrMetallicRoughness" : {
                "baseColorFactor" : [
                    0.15292617678642273,
                    0.07036010175943375,
                    0.05951124429702759,
                    1
                ],
                "metallicFactor" : 0,
                "roughnessFactor" : 0.5
            }
        },
        {
            "doubleSided" : true,
            "name" : "Green",
            "pbrMetallicRoughness" : {
                "baseColorFactor" : [
                    0.08744194358587265,
                    0.15232062339782715,
                    0.05986013635993004,
                    1
                ],
                "metallicFactor" : 0,
                "roughnessFactor" : 0.5
            }
        }
    ],
    "meshes" : [
        {
            "name" : "Cube.049",
            "primitives" : [
                {
                    "attributes" : {
                        "POSITION" : 0,
                        "NORMAL" : 1
                    },
                    "indices" : 2,
                    "material" : 0
                },
                {
                    "attributes" : {
                        "POSITION" : 3,
                        "NORMAL" : 4
                    },
                    "indices" : 5,
                    "material" : 1
                }
            ]
        }
    ],
    "accessors" : [
        {
            "bufferView" : 0,
            "componentType" : 5126,
            "count" : 4720,
            "max" : [
                0.4954144060611725,
                2.1783599853515625,
                1.1546136140823364
            ],
            "min" : [
                -0.549372673034668,
                -0.04246043041348457,
                -0.965383768081665
            ],
            "type" : "VEC3"
        },
        {
            "bufferView" : 1,
            "componentType" : 5126,
            "count" : 4720,
            "type" : "VEC3"
        },
        {
            "bufferView" : 2,
            "componentType" : 5123,
            "count" : 7080,
            "type" : "SCALAR"
        },
        {
            "bufferView" : 3,
            "componentType" : 5126,
            "count" : 1056,
            "max" : [
                0.9712318181991577,
                2.438101291656494,
                1.5987976789474487
            ],
            "min" : [
                -0.9178823828697205,
                1.3784047365188599,
                -1.1743383407592773
            ],
            "type" : "VEC3"
        },
        {
            "bufferView" : 4,
            "componentType" : 5126,
            "count" : 1056,
            "type" : "VEC3"
        },
        {
            "bufferView" : 5,
            "componentType" : 5123,
            "count" : 1584,
            "type" : "SCALAR"
        }
    ],
    "bufferViews" : [
        {
            "buffer" : 0,
            "byteLength" : 56640,
            "byteOffset" : 0
        },
        {
            "buffer" : 0,
            "byteLength" : 56640,
            "byteOffset" : 56640
        },
        {
            "buffer" : 0,
            "byteLength" : 14160,
            "byteOffset" : 113280
        },
        {
            "buffer" : 0,
            "byteLength" : 12672,
            "byteOffset" : 127440
        },
        {
            "buffer" : 0,
            "byteLength" : 12672,
            "byteOffset" : 140112
        },
        {
            "buffer" : 0,
            "byteLength" : 3168,
            "byteOffset" : 152784
        }
    ],
    "buffers" : [
        {
            "byteLength" : 155952,
            "uri" : "data:application/octet-stream;base64,"
        }
    ]
}
