{
    "asset" : {
        "generator" : "Khronos glTF Blender I/O v1.8.19",
        "version" : "2.0"
    },
    "scene" : 0,
    "scenes" : [
        {
            "name" : "Scene",
            "nodes" : [
                0
            ]
        }
    ],
    "nodes" : [
        {
            "mesh" : 0,
            "name" : "CommonTree_2"
        }
    ],
    "materials" : [
        {
            "doubleSided" : true,
            "name" : "Wood",
            "pbrMetallicRoughness" : {
                "baseColorFactor" : [
                    0.15292617678642273,
                    0.07036010175943375,
                    0.05951124429702759,
                    1
                ],
                "metallicFactor" : 0,
                "roughnessFactor" : 0.5
            }
        },
        {
            "doubleSided" : true,
            "name" : "Green",
            "pbrMetallicRoughness" : {
                "baseColorFactor" : [
                    0.08744194358587265,
                    0.15232062339782715,
                    0.05986013635993004,
                    1
                ],
                "metallicFactor" : 0,
                "roughnessFactor" : 0.5
            }
        }
    ],
    "meshes" : [
        {
            "name" : "Cube.036",
            "primitives" : [
                {
                    "attributes" : {
                        "POSITION" : 0,
                        "NORMAL" : 1
                    },
                    "indices" : 2,
                    "material" : 0
                },
                {
                    "attributes" : {
                        "POSITION" : 3,
                        "NORMAL" : 4
                    },
                    "indices" : 5,
                    "material" : 1
                }
            ]
        }
    ],
    "accessors" : [
        {
            "bufferView" : 0,
            "componentType" : 5126,
            "count" : 4720,
            "max" : [
                0.6305696964263916,
                2.9051382541656494,
                1.2621444463729858
            ],
            "min" : [
                -0.6992484927177429,
                -0.05404417961835861,
                -0.6027277112007141
            ],
            "type" : "VEC3"
        },
        {
            "bufferView" : 1,
            "componentType" : 5126,
            "count" : 4720,
            "type" : "VEC3"
        },
        {
            "bufferView" : 2,
            "componentType" : 5123,
            "count" : 7080,
            "type" : "SCALAR"
        },
        {
            "bufferView" : 3,
            "componentType" : 5126,
            "count" : 1184,
            "max" : [
                0.8433607816696167,
                3.068746328353882,
                1.6037081480026245
            ],
            "min" : [
                -0.8198280930519104,
                1.3959357738494873,
                -0.9372044801712036
            ],
            "type" : "VEC3"
        },
        {
            "bufferView" : 4,
            "componentType" : 5126,
            "count" : 1184,
            "type" : "VEC3"
        },
        {
            "bufferView" : 5,
            "componentType" : 5123,
            "count" : 1776,
            "type" : "SCALAR"
        }
    ],
    "bufferViews" : [
        {
            "buffer" : 0,
            "byteLength" : 56640,
            "byteOffset" : 0
        },
        {
            "buffer" : 0,
            "byteLength" : 56640,
            "byteOffset" : 56640
        },
        {
            "buffer" : 0,
            "byteLength" : 14160,
            "byteOffset" : 113280
        },
        {
            "buffer" : 0,
            "byteLength" : 14208,
            "byteOffset" : 127440
        },
        {
            "buffer" : 0,
            "byteLength" : 14208,
            "byteOffset" : 141648
        },
        {
            "buffer" : 0,
            "byteLength" : 3552,
            "byteOffset" : 155856
        }
    ],
    "buffers" : [
        {
            "byteLength" : 159408,
            "uri" : "data:application/octet-stream;base64,"
        }
    ]
}
