{
    "asset" : {
        "generator" : "Khronos glTF Blender I/O v1.8.19",
        "version" : "2.0"
    },
    "scene" : 0,
    "scenes" : [
        {
            "name" : "Scene",
            "nodes" : [
                0
            ]
        }
    ],
    "nodes" : [
        {
            "mesh" : 0,
            "name" : "PalmTree_2"
        }
    ],
    "materials" : [
        {
            "doubleSided" : true,
            "name" : "Wood",
            "pbrMetallicRoughness" : {
                "baseColorFactor" : [
                    0.15292617678642273,
                    0.07036010175943375,
                    0.05951124429702759,
                    1
                ],
                "metallicFactor" : 0,
                "roughnessFactor" : 0.5
            }
        },
        {
            "doubleSided" : true,
            "name" : "Green",
            "pbrMetallicRoughness" : {
                "baseColorFactor" : [
                    0.08744194358587265,
                    0.15232062339782715,
                    0.05986013635993004,
                    1
                ],
                "metallicFactor" : 0,
                "roughnessFactor" : 0.5
            }
        },
        {
            "doubleSided" : true,
            "name" : "DarkGreen",
            "pbrMetallicRoughness" : {
                "baseColorFactor" : [
                    0.05316007137298584,
                    0.09083576500415802,
                    0.03697298839688301,
                    1
                ],
                "metallicFactor" : 0,
                "roughnessFactor" : 0.5
            }
        }
    ],
    "meshes" : [
        {
            "name" : "Cylinder.039",
            "primitives" : [
                {
                    "attributes" : {
                        "POSITION" : 0,
                        "NORMAL" : 1
                    },
                    "indices" : 2,
                    "material" : 0
                },
                {
                    "attributes" : {
                        "POSITION" : 3,
                        "NORMAL" : 4
                    },
                    "indices" : 5,
                    "material" : 1
                },
                {
                    "attributes" : {
                        "POSITION" : 6,
                        "NORMAL" : 7
                    },
                    "indices" : 8,
                    "material" : 2
                }
            ]
        }
    ],
    "accessors" : [
        {
            "bufferView" : 0,
            "componentType" : 5126,
            "count" : 228,
            "max" : [
                0.21328650414943695,
                2.5410923957824707,
                1.7440681457519531
            ],
            "min" : [
                -0.21417394280433655,
                -0.035411059856414795,
                -0.11245930194854736
            ],
            "type" : "VEC3"
        },
        {
            "bufferView" : 1,
            "componentType" : 5126,
            "count" : 228,
            "type" : "VEC3"
        },
        {
            "bufferView" : 2,
            "componentType" : 5123,
            "count" : 348,
            "type" : "SCALAR"
        },
        {
            "bufferView" : 3,
            "componentType" : 5126,
            "count" : 1588,
            "max" : [
                1.2464532852172852,
                2.87363862991333,
                2.9227371215820312
            ],
            "min" : [
                -1.0744552612304688,
                1.3709709644317627,
                0.19482862949371338
            ],
            "type" : "VEC3"
        },
        {
            "bufferView" : 4,
            "componentType" : 5126,
            "count" : 1588,
            "type" : "VEC3"
        },
        {
            "bufferView" : 5,
            "componentType" : 5123,
            "count" : 2340,
            "type" : "SCALAR"
        },
        {
            "bufferView" : 6,
            "componentType" : 5126,
            "count" : 684,
            "max" : [
                1.1649971008300781,
                2.703300952911377,
                3.065670967102051
            ],
            "min" : [
                -0.4349205493927002,
                1.4229848384857178,
                0.5288574695587158
            ],
            "type" : "VEC3"
        },
        {
            "bufferView" : 7,
            "componentType" : 5126,
            "count" : 684,
            "type" : "VEC3"
        },
        {
            "bufferView" : 8,
            "componentType" : 5123,
            "count" : 1008,
            "type" : "SCALAR"
        }
    ],
    "bufferViews" : [
        {
            "buffer" : 0,
            "byteLength" : 2736,
            "byteOffset" : 0
        },
        {
            "buffer" : 0,
            "byteLength" : 2736,
            "byteOffset" : 2736
        },
        {
            "buffer" : 0,
            "byteLength" : 696,
            "byteOffset" : 5472
        },
        {
            "buffer" : 0,
            "byteLength" : 19056,
            "byteOffset" : 6168
        },
        {
            "buffer" : 0,
            "byteLength" : 19056,
            "byteOffset" : 25224
        },
        {
            "buffer" : 0,
            "byteLength" : 4680,
            "byteOffset" : 44280
        },
        {
            "buffer" : 0,
            "byteLength" : 8208,
            "byteOffset" : 48960
        },
        {
            "buffer" : 0,
            "byteLength" : 8208,
            "byteOffset" : 57168
        },
        {
            "buffer" : 0,
            "byteLength" : 2016,
            "byteOffset" : 65376
        }
    ],
    "buffers" : [
        {
            "byteLength" : 67392,
            "uri" : "data:application/octet-stream;base64,"
        }
    ]
}
