{
    "asset" : {
        "generator" : "Khronos glTF Blender I/O v1.8.19",
        "version" : "2.0"
    },
    "scene" : 0,
    "scenes" : [
        {
            "name" : "Scene",
            "nodes" : [
                0
            ]
        }
    ],
    "nodes" : [
        {
            "mesh" : 0,
            "name" : "PalmTree_1"
        }
    ],
    "materials" : [
        {
            "doubleSided" : true,
            "name" : "Wood",
            "pbrMetallicRoughness" : {
                "baseColorFactor" : [
                    0.15292617678642273,
                    0.07036010175943375,
                    0.05951124429702759,
                    1
                ],
                "metallicFactor" : 0,
                "roughnessFactor" : 0.5
            }
        },
        {
            "doubleSided" : true,
            "name" : "Green",
            "pbrMetallicRoughness" : {
                "baseColorFactor" : [
                    0.08744194358587265,
                    0.15232062339782715,
                    0.05986013635993004,
                    1
                ],
                "metallicFactor" : 0,
                "roughnessFactor" : 0.5
            }
        },
        {
            "doubleSided" : true,
            "name" : "DarkGreen",
            "pbrMetallicRoughness" : {
                "baseColorFactor" : [
                    0.05316007137298584,
                    0.09083576500415802,
                    0.03697298839688301,
                    1
                ],
                "metallicFactor" : 0,
                "roughnessFactor" : 0.5
            }
        }
    ],
    "meshes" : [
        {
            "name" : "Cylinder.041",
            "primitives" : [
                {
                    "attributes" : {
                        "POSITION" : 0,
                        "NORMAL" : 1
                    },
                    "indices" : 2,
                    "material" : 0
                },
                {
                    "attributes" : {
                        "POSITION" : 3,
                        "NORMAL" : 4
                    },
                    "indices" : 5,
                    "material" : 1
                },
                {
                    "attributes" : {
                        "POSITION" : 6,
                        "NORMAL" : 7
                    },
                    "indices" : 8,
                    "material" : 2
                }
            ]
        }
    ],
    "accessors" : [
        {
            "bufferView" : 0,
            "componentType" : 5126,
            "count" : 180,
            "max" : [
                0.15398624539375305,
                3.5653889179229736,
                0.6460177302360535
            ],
            "min" : [
                -0.19759593904018402,
                -0.023760326206684113,
                -0.1559581309556961
            ],
            "type" : "VEC3"
        },
        {
            "bufferView" : 1,
            "componentType" : 5126,
            "count" : 180,
            "type" : "VEC3"
        },
        {
            "bufferView" : 2,
            "componentType" : 5123,
            "count" : 276,
            "type" : "SCALAR"
        },
        {
            "bufferView" : 3,
            "componentType" : 5126,
            "count" : 2320,
            "max" : [
                1.6093372106552124,
                4.44763708114624,
                1.5341037511825562
            ],
            "min" : [
                -1.267573356628418,
                2.873234748840332,
                -1.0748867988586426
            ],
            "type" : "VEC3"
        },
        {
            "bufferView" : 4,
            "componentType" : 5126,
            "count" : 2320,
            "type" : "VEC3"
        },
        {
            "bufferView" : 5,
            "componentType" : 5123,
            "count" : 3420,
            "type" : "SCALAR"
        },
        {
            "bufferView" : 6,
            "componentType" : 5126,
            "count" : 1100,
            "max" : [
                1.1371914148330688,
                3.9370710849761963,
                1.2974423170089722
            ],
            "min" : [
                -1.194022297859192,
                2.437979221343994,
                -0.49133050441741943
            ],
            "type" : "VEC3"
        },
        {
            "bufferView" : 7,
            "componentType" : 5126,
            "count" : 1100,
            "type" : "VEC3"
        },
        {
            "bufferView" : 8,
            "componentType" : 5123,
            "count" : 1620,
            "type" : "SCALAR"
        }
    ],
    "bufferViews" : [
        {
            "buffer" : 0,
            "byteLength" : 2160,
            "byteOffset" : 0
        },
        {
            "buffer" : 0,
            "byteLength" : 2160,
            "byteOffset" : 2160
        },
        {
            "buffer" : 0,
            "byteLength" : 552,
            "byteOffset" : 4320
        },
        {
            "buffer" : 0,
            "byteLength" : 27840,
            "byteOffset" : 4872
        },
        {
            "buffer" : 0,
            "byteLength" : 27840,
            "byteOffset" : 32712
        },
        {
            "buffer" : 0,
            "byteLength" : 6840,
            "byteOffset" : 60552
        },
        {
            "buffer" : 0,
            "byteLength" : 13200,
            "byteOffset" : 67392
        },
        {
            "buffer" : 0,
            "byteLength" : 13200,
            "byteOffset" : 80592
        },
        {
            "buffer" : 0,
            "byteLength" : 3240,
            "byteOffset" : 93792
        }
    ],
    "buffers" : [
        {
            "byteLength" : 97032,
            "uri" : "data:application/octet-stream;base64,"
        }
    ]
}
